HIERARCHY
ROOT Hips
{
 OFFSET 0.000000 0.000000 0.000000
 CHANNELS 6 Xposition Yposition Zposition Yrotation Xrotation Zrotation
 JOINT Chest
 {
  OFFSET 0.000000 9.585900 0.002600
  CHANNELS 3 Yrotation Xrotation Zrotation
  JOINT Chest2
  {
   OFFSET 0.000000 9.601200 -0.005300
   CHANNELS 3 Yrotation Xrotation Zrotation
   JOINT Chest3
   {
    OFFSET 0.000000 9.561800 0.000000
    CHANNELS 3 Yrotation Xrotation Zrotation
    JOINT Chest4
    {
     OFFSET 0.000000 9.552100 0.000000
     CHANNELS 3 Yrotation Xrotation Zrotation
     JOINT Neck
     {
      OFFSET 0.000000 14.453000 0.000000
      CHANNELS 3 Yrotation Xrotation Zrotation
      JOINT Head
      {
       OFFSET 0.000000 8.936500 -0.011300
       CHANNELS 3 Yrotation Xrotation Zrotation
       End Site
       {
        OFFSET 0.000000 17.073600 -0.006000
       }
      }
     }
     JOINT RightCollar
     {
      OFFSET -2.921100 9.558500 0.000000
      CHANNELS 3 Yrotation Xrotation Zrotation
      JOINT RightShoulder
      {
       OFFSET -13.519700 0.000000 0.000000
       CHANNELS 3 Yrotation Xrotation Zrotation
       JOINT RightElbow
       {
        OFFSET 0.000000 -29.696600 0.000000
        CHANNELS 3 Yrotation Xrotation Zrotation
        JOINT RightWrist
        {
         OFFSET 0.000000 -24.004700 0.000000
         CHANNELS 3 Yrotation Xrotation Zrotation
         End Site
         {
          OFFSET 0.000000 -17.728500 0.000000
         }
        }
       }
      }
     }
     JOINT LeftCollar
     {
      OFFSET 2.921100 9.558500 0.000000
      CHANNELS 3 Yrotation Xrotation Zrotation
      JOINT LeftShoulder
      {
       OFFSET 13.519700 0.000000 0.000000
       CHANNELS 3 Yrotation Xrotation Zrotation
       JOINT LeftElbow
       {
        OFFSET 0.000000 -29.696600 0.000000
        CHANNELS 3 Yrotation Xrotation Zrotation
        JOINT LeftWrist
        {
         OFFSET 0.000000 -24.004700 0.000000
         CHANNELS 3 Yrotation Xrotation Zrotation
         End Site
         {
          OFFSET 0.000000 -17.728500 0.000000
         }
        }
       }
      }
     }
    }
   }
  }
 }
 JOINT RightHip
 {
  OFFSET -7.771700 -0.012900 -0.001300
  CHANNELS 3 Yrotation Xrotation Zrotation
  JOINT RightKnee
  {
   OFFSET 0.000000 -40.869800 0.001200
   CHANNELS 3 Yrotation Xrotation Zrotation
   JOINT RightAnkle
   {
    OFFSET 0.000000 -39.717900 0.002100
    CHANNELS 3 Yrotation Xrotation Zrotation
    JOINT RightToe
    {
     OFFSET 0.000000 -4.965400 11.033500
     CHANNELS 3 Yrotation Xrotation Zrotation
     End Site
     {
      OFFSET 0.000000 -1.423100 5.872300
     }
    }
   }
  }
 }
 JOINT LeftHip
 {
  OFFSET 7.771700 -0.012900 -0.001300
  CHANNELS 3 Yrotation Xrotation Zrotation
  JOINT LeftKnee
  {
   OFFSET 0.000000 -40.869800 0.001200
   CHANNELS 3 Yrotation Xrotation Zrotation
   JOINT LeftAnkle
   {
    OFFSET 0.000000 -39.717900 0.002100
    CHANNELS 3 Yrotation Xrotation Zrotation
    JOINT LeftToe
    {
     OFFSET 0.000000 -4.965400 11.033500
     CHANNELS 3 Yrotation Xrotation Zrotation
     End Site
     {
      OFFSET 0.000000 -1.423100 5.872300
     }
    }
   }
  }
 }
}
MOTION
Frames: 6
Frame Time: 0.008333
-88.542491 55.536558 -46.702317 -171.002616 -14.768823 -0.918796 -0.731038 16.394010 0.709927 -0.109936 1.627046 0.119003 -0.159699 2.735118 0.158849 -0.848348 14.412600 0.954371 -2.132430 12.990104 -3.653422 -1.417998 -12.023959 -3.375033 1.163930 0.620954 1.449405 -3.358746 -9.553071 -6.743041 -64.371205 -48.136571 90.423692 -17.059108 10.704123 0.741626 -7.589049 -2.865226 0.776247 -1.636396 -14.004059 9.702287 42.013437 -38.228472 -91.823741 16.762108 -14.554247 11.776941 -0.880189 -61.176926 5.022562 -40.825656 84.907546 -46.488615 -8.773020 -15.390140 12.234854 -0.025570 -0.520146 0.302623 11.088134 -56.958630 -13.893861 88.656251 71.046080 89.820358 0.018066 -19.531930 -2.204375 0.469697 0.620783 0.240920
-88.536750 55.527797 -46.700396 -170.998085 -14.784001 -0.952754 -0.728968 16.407401 0.748815 -0.124213 1.618854 0.134961 -0.158155 2.737695 0.168098 -0.867917 14.411567 0.971395 -2.126487 13.045532 -3.614244 -1.420043 -11.967301 -3.333435 1.183431 0.636046 1.413465 -3.396533 -9.541776 -6.638582 -64.431511 -48.142995 90.388682 -17.071189 10.687880 0.713117 -7.557316 -2.855888 0.747900 -1.489914 -14.012270 9.578861 42.090228 -38.264126 -91.801438 16.754063 -14.597863 11.801281 -0.875444 -61.178003 5.096950 -41.312868 84.871142 -46.972569 -8.824933 -15.345783 12.154125 0.022752 -0.500798 0.336929 11.035601 -56.954613 -13.818248 88.675978 71.059416 89.840300 0.023204 -19.549851 -2.208261 0.466267 0.638941 0.239082
-88.535699 55.518584 -46.695334 -171.003463 -14.786516 -0.945184 -0.742336 16.398418 0.756871 -0.128612 1.619080 0.132725 -0.182113 2.728364 0.197406 -0.853030 14.427033 0.943562 -2.128466 13.090223 -3.549358 -1.418980 -11.917430 -3.289593 1.176749 0.644107 1.448176 -3.423681 -9.546030 -6.586796 -64.470134 -48.142759 90.358019 -17.081850 10.652129 0.687857 -7.538264 -2.848602 0.749643 -1.348603 -14.009447 9.448384 42.202838 -38.307348 -91.802763 16.740611 -14.640844 11.823947 -0.826179 -61.190582 5.102454 -41.792952 84.827540 -47.478116 -8.809394 -15.319437 12.107967 0.020054 -0.475399 0.337329 11.050092 -56.953407 -13.820629 88.683302 71.059420 89.843002 0.023721 -19.561586 -2.205871 0.460972 0.653606 0.233227
-88.533154 55.509972 -46.691643 -171.006454 -14.798402 -0.943605 -0.777544 16.385304 0.770395 -0.112038 1.631524 0.120722 -0.175508 2.735939 0.192813 -0.886288 14.418995 0.975331 -2.112655 13.134448 -3.517527 -1.417418 -11.874490 -3.243313 1.207172 0.658336 1.415589 -3.477751 -9.558202 -6.501492 -64.494092 -48.141133 90.331441 -17.086683 10.609097 0.672030 -7.493598 -2.831161 0.747489 -1.208918 -14.003197 9.292987 42.355926 -38.362551 -91.824576 16.725594 -14.675204 11.835561 -0.784247 -61.193884 5.106730 -42.246760 84.790850 -47.942778 -8.808189 -15.298207 12.093204 0.034091 -0.451953 0.301100 11.049677 -56.943632 -13.809016 88.694004 71.055264 89.850315 0.021846 -19.576855 -2.206659 0.456299 0.670104 0.227823
-88.529363 55.502160 -46.689914 -171.002731 -14.824046 -0.952115 -0.793295 16.394724 0.782875 -0.114109 1.632302 0.122168 -0.171661 2.746115 0.189771 -0.917654 14.409531 0.999692 -2.097222 13.172107 -3.482513 -1.417372 -11.838669 -3.196387 1.223181 0.666141 1.410856 -3.484194 -9.560435 -6.490043 -64.578925 -48.109951 90.353606 -17.085248 10.569547 0.669868 -7.459447 -2.809866 0.753694 -1.069440 -13.992765 9.138904 42.544506 -38.437688 -91.860809 16.711999 -14.704175 11.832337 -0.757326 -61.183167 5.123142 -42.716249 84.753599 -48.419223 -8.791650 -15.271921 12.028331 0.035274 -0.441594 0.312618 11.014621 -56.924163 -13.765223 88.714400 71.059936 89.865592 0.017690 -19.588916 -2.214683 0.459641 0.682976 0.228160
-88.526649 55.494380 -46.686959 -170.990597 -14.846826 -0.958143 -0.810393 16.408672 0.787700 -0.121893 1.623286 0.125439 -0.175880 2.748530 0.195797 -0.933067 14.412408 1.005586 -2.090102 13.201015 -3.437513 -1.419583 -11.809574 -3.149280 1.198450 0.651630 1.444243 -3.458206 -9.546855 -6.505009 -64.666496 -48.092104 90.389669 -17.077779 10.543479 0.687142 -7.449272 -2.792448 0.772592 -0.926638 -13.977155 8.990324 42.758847 -38.535035 -91.907796 16.700106 -14.736518 11.820712 -0.725869 -61.176524 5.121289 -43.134103 84.724407 -48.837196 -8.785596 -15.246780 11.964088 0.039661 -0.438209 0.341513 10.952047 -56.917138 -13.725446 88.752739 71.054485 89.889404 0.039088 -19.580092 -2.224465 0.445501 0.684007 0.216366
